# xmcd CD database file
#
# Track frame offsets:
#	150
#	10901
#	23325
#	35762
#	46768
#	58273
#	69878
#	81673
#	95406
#	108535
#	119622
#	132335
#	144366
#	158279
#	171974
#	190312
#	202690
#	215031
#	227024
#	237853
#	250883
#	262779
#	274965
#	287956
#	301043
#	312119
#
# Disc length: 4273 seconds
#
# Revision: 4
# Processed by: cddbd v1.5.2PL0 Copyright (c) Steve Scherf et al.
# Submitted via: CDex 1.40Beta9
#
DISCID=6810af1a
DTITLE=Various Artist - The Complete Motown Singles Volume 1 [CD3]
DYEAR=2004
DGENRE=R&B/Soul
TTITLE0=Jimmy Ruffin - Don't Feel Sorry For Me
TTITLE1=Jimmy Ruffin - Heart
TTITLE2=Debbie Dean - Don't Let Him Shop Around
TTITLE3=Debbie Dean - A New Girl
TTITLE4=The Miracles - Ain't It Baby
TTITLE5=The Miracles - The Only One I Love
TTITLE6=Barrett Strong - Money And Me
TTITLE7=Barrett Strong - You've Got What It Takes
TTITLE8=Little Iva and Her Band - When I Needed You
TTITLE9=Little Iva and Her Band - Continental Strut
TTITLE10=The Contours - Whole Lotta Woman [regional version]
TTITLE11=The Countours - Come On And Be Mine
TTITLE12=The Supremes - I Want A Guy
TTITLE13=The Supremes - Never Again
TTITLE14=The Gospel Stars - He Lifted Me [unedited version]
TTITLE15=The Gospel Stars - Behold The Saints Of God
TTITLE16=Mickey Woods - Poor Sam Jones
TTITLE17=Mickey Woods - They Rode Through The Valley
TTITLE18=Richard Wylie and His Band - Money (That's What I Want)
TTITLE19=Richard Wylie and His Band - I'll Still Be Around
TTITLE20=The Satintones - Tomorrow And Always [without strings]
TTITLE21=The Satintones - A Love That Can Never Be
TTITLE22=The Satintones - Tomorrow And Always [with strings]
TTITLE23=The Contours - Whole Lotta Woman [national version]
TTITLE24=Gino Parks - Blibberin' Blabbin' Blues
TTITLE25=Gino Parks - Don't Say Bye Bye
EXTD=YEAR: 2004
EXTT0=
EXTT1=
EXTT2=
EXTT3=
EXTT4=
EXTT5=
EXTT6=
EXTT7=
EXTT8=
EXTT9=
EXTT10=
EXTT11=
EXTT12=
EXTT13=
EXTT14=
EXTT15=
EXTT16=
EXTT17=
EXTT18=
EXTT19=
EXTT20=
EXTT21=
EXTT22=
EXTT23=
EXTT24=
EXTT25=
PLAYORDER=
